<svg xmlns="http://www.w3.org/2000/svg" viewBox="0 0 24 24" fill="currentColor">
  <path d="M12 15.5a3.5 3.5 0 1 1 0-7 3.5 3.5 0 0 1 0 7Zm10-3.5a1 1 0 0 0-.76-.97l-1.67-.4a7.94 7.94 0 0 0-.64-1.54l.96-1.4a1 1 0 0 0-.12-1.24l-1.8-1.8a1 1 0 0 0-1.24-.12l-1.4.96a7.94 7.94 0 0 0-1.54-.64l-.4-1.67A1 1 0 0 0 13.5 2h-3a1 1 0 0 0-.97.76l-.4 1.67a7.94 7.94 0 0 0-1.54.64l-1.4-.96a1 1 0 0 0-1.24.12l-1.8 1.8a1 1 0 0 0-.12 1.24l.96 1.4c-.3.5-.52 1.02-.64 1.54l-1.67.4A1 1 0 0 0 2 12.5v3a1 1 0 0 0 .76.97l1.67.4c.12.52.34 1.04.64 1.54l-.96 1.4a1 1 0 0 0 .12 1.24l1.8 1.8a1 1 0 0 0 1.24.12l1.4-.96c.5.3 1.02.52 1.54.64l.4 1.67a1 1 0 0 0 .97.76h3a1 1 0 0 0 .97-.76l.4-1.67c.52-.12 1.04-.34 1.54-.64l1.4.96a1 1 0 0 0 1.24-.12l1.8-1.8a1 1 0 0 0 .12-1.24l-.96-1.4c.3-.5.52-1.02.64-1.54l1.67-.4a1 1 0 0 0 .76-.97v-3Z"/>
</svg>
