<svg xmlns="http://www.w3.org/2000/svg" viewBox="0 0 24 24" fill="currentColor">
  <path
    fill-rule="evenodd"
    clip-rule="evenodd"
    d="M11.25 1.5a.75.75 0 0 1 1.5 0v1.31a8.96 8.96 0 0 1 2.153.624l.93-1.12a.75.75 0 1 1 1.164.948l-.93 1.12a9.04 9.04 0 0 1 1.495 1.495l1.12-.93a.75.75 0 1 1 .948 1.164l-1.12.93c.27.681.472 1.41.624 2.153h1.31a.75.75 0 0 1 0 1.5h-1.31a8.96 8.96 0 0 1-.624 2.153l1.12.93a.75.75 0 0 1-.948 1.164l-1.12-.93a9.04 9.04 0 0 1-1.495 1.495l.93 1.12a.75.75 0 0 1-1.164.948l-.93-1.12a8.96 8.96 0 0 1-2.153.624v1.31a.75.75 0 0 1-1.5 0v-1.31a8.96 8.96 0 0 1-2.153-.624l-.93 1.12a.75.75 0 1 1-1.164-.948l.93-1.12a9.04 9.04 0 0 1-1.495-1.495l-1.12.93a.75.75 0 1 1-.948-1.164l1.12-.93A8.96 8.96 0 0 1 3.56 12.75H2.25a.75.75 0 0 1 0-1.5h1.31a8.96 8.96 0 0 1 .624-2.153l-1.12-.93a.75.75 0 0 1 .948-1.164l1.12.93a9.04 9.04 0 0 1 1.495-1.495l-.93-1.12a.75.75 0 0 1 1.164-.948l.93 1.12a8.96 8.96 0 0 1 2.153-.624V1.5Zm3.75 10.5a3.75 3.75 0 1 1-7.5 0 3.75 3.75 0 0 1 7.5 0Z"
  />
</svg>
